<?xml version="1.0" encoding="UTF-8"?>
<svg id="_图层_2" data-name="图层 2" xmlns="http://www.w3.org/2000/svg" viewBox="0 0 506.44 506.44">
  <defs>
    <style>
      .cls-1 {
        fill: #f8f8fa;
      }

      .cls-2 {
        fill: #1b2bb0;
      }

      .cls-3 {
        fill: #0dc4fa;
      }

      .cls-4 {
        fill: #296dfa;
      }
    </style>
  </defs>
  <g id="_图层_1-2" data-name="图层 1">
    <rect class="cls-1" width="512" height="512" rx="107.05" ry="107.05"/>
    <path class="cls-3" d="M222.48,148.49c25.94,6.04,70.06,13.78,109.83,32.23,3.33-8.15,5.37-16.48,4.74-24.84-4.74-84.69-132.92-109.9-171.83-90.08-38.9,19.82-47.03,49.22-56.36,113.97-2.27,15.73-3.82,29.06-4.74,40.5,1.73-11.83,4.94-22.73,10.6-32.26,33.01-53.92,85.77-42.67,107.75-39.51Z"/>
    <path class="cls-4" d="M418,296.45c-1.7-60.69-40.95-94.98-85.68-115.73-.33,.82-.67,1.64-1.04,2.46,.01,0,.02,0,.03,.01-22.97,51.11-108.03,95.51-145.62,108.64-40.42,14.17-54.35,7.03-68.91-5.91-8.49-7.54-13.16-18.86-13.58-40.68-.02-.87,0-1.75,0-2.63-.02,.88-.03,1.77-.03,2.63-.09-4.39,.01-9.26,.27-14.55,.01-.27,.03-.55,.04-.82,.16-3.04,.37-6.25,.64-9.6-3.46,23.65-.91,51.11,.47,79.34,2.23,45.67,5.69,104.17,37.43,130.21,68.17,52.67,279.4-11.14,275.98-133.36Z"/>
    <path class="cls-3" d="M103.44,230.69c-.26,5.29-.36,10.16-.27,14.55,0-.87,.02-1.75,.03-2.63,0,.88-.01,1.76,0,2.63,.41,21.82,5.09,33.14,13.58,40.68,14.56,12.94,28.49,20.08,68.91,5.91,37.58-13.12,122.65-57.53,145.62-108.64-.01,0-.02,0-.03-.01,.37-.82,.7-1.64,1.04-2.46-39.77-18.45-83.89-26.19-109.83-32.23-21.98-3.15-74.74-14.41-107.75,39.51-5.66,9.53-8.87,20.43-10.6,32.26-.27,3.35-.49,6.56-.64,9.6-.02,.27-.03,.55-.04,.82Z"/>
    <path class="cls-2" d="M103.44,230.69c-.26,5.29-.36,10.16-.27,14.55,0-.87,.02-1.75,.03-2.63,0,.88-.01,1.76,0,2.63,.41,21.82,5.09,33.14,13.58,40.68,14.56,12.94,28.49,20.08,68.91,5.91,37.58-13.12,122.65-57.53,145.62-108.64-.01,0-.02,0-.03-.01,.37-.82,.7-1.64,1.04-2.46-39.77-18.45-83.89-26.19-109.83-32.23-21.98-3.15-74.74-14.41-107.75,39.51-5.66,9.53-8.87,20.43-10.6,32.26-.27,3.35-.49,6.56-.64,9.6-.02,.27-.03,.55-.04,.82Z"/>
  </g>
</svg>