<?xml version="1.0" standalone="no"?><!DOCTYPE svg PUBLIC "-//W3C//DTD SVG 1.1//EN" "http://www.w3.org/Graphics/SVG/1.1/DTD/svg11.dtd"><svg t="1704314051054" class="icon" viewBox="0 0 1024 1024" version="1.1" xmlns="http://www.w3.org/2000/svg" p-id="17751" xmlns:xlink="http://www.w3.org/1999/xlink" width="200" height="200"><path d="M662.384539 156.783881c38.396052-41.595723 63.993421-99.189802 57.594078-156.783881-54.394408 3.199671-121.587499 31.99671-163.183223 73.592434-35.196381 35.196381-67.193092 95.990131-57.594078 150.384538 60.79375 6.399342 124.78717-25.597368 163.183223-67.193091z m118.387828 393.559537c0-127.986841 102.389473-188.780591 105.589144-191.980262-57.594079-86.391118-147.184868-99.189802-179.181578-99.189802-76.792105-9.599013-150.384539 44.795394-188.780591 44.795394s-99.189802-44.795394-163.183223-44.795394c-83.191447 0-159.983552 51.194737-201.579275 127.986841-86.391118 153.58421-22.397697 383.960524 60.79375 508.747694 41.595723 60.79375 89.590789 131.186512 153.584209 127.986842 60.79375-3.199671 86.391118-41.595723 159.983552-41.595724S623.988486 1023.894731 691.181578 1023.894731s108.788815-63.993421 150.384538-124.78717c47.995066-70.392763 67.193092-140.785525 67.193092-143.985197 0 0-127.986841-51.194737-127.986841-204.778946z" fill="#0ea5e9" p-id="17752"></path></svg>